<svg xmlns="http://www.w3.org/2000/svg" viewBox="0 0 1160 1253" width="1160" height="1253">
  <rect width="100%" height="100%" fill="#f4ecd9"/>
  <text x="22" y="36" font-family="Georgia, serif" font-size="28" fill="#24313b">American Chronicle — Character Equipment Contact Sheet</text>
  <text x="22" y="58" font-family="system-ui, sans-serif" font-size="12" fill="#51616d">Modular transparent SVG layers • 512 × 768 shared canvas • First ten shown per slot</text>
  <text x="22" y="56" font-family="Georgia, serif" font-size="20" fill="#24313b">Shoes</text><g transform="translate(22 70)"><rect width="96" height="136" rx="12" fill="#fff8e9" stroke="#2d3740" stroke-opacity=".18"/><image href="../shoes/starter-leather-shoes.svg" x="0" y="0" width="96" height="144" preserveAspectRatio="xMidYMid meet"/><text x="48" y="125" text-anchor="middle" font-family="system-ui, sans-serif" font-size="8" fill="#24313b">Starter Leather </text></g><g transform="translate(134 70)"><rect width="96" height="136" rx="12" fill="#fff8e9" stroke="#2d3740" stroke-opacity=".18"/><image href="../shoes/colonial-buckles.svg" x="0" y="0" width="96" height="144" preserveAspectRatio="xMidYMid meet"/><text x="48" y="125" text-anchor="middle" font-family="system-ui, sans-serif" font-size="8" fill="#24313b">Colonial Buckle </text></g><g transform="translate(246 70)"><rect width="96" height="136" rx="12" fill="#fff8e9" stroke="#2d3740" stroke-opacity=".18"/><image href="../shoes/frontier-boots.svg" x="0" y="0" width="96" height="144" preserveAspectRatio="xMidYMid meet"/><text x="48" y="125" text-anchor="middle" font-family="system-ui, sans-serif" font-size="8" fill="#24313b">Frontier Boots</text></g><g transform="translate(358 70)"><rect width="96" height="136" rx="12" fill="#fff8e9" stroke="#2d3740" stroke-opacity=".18"/><image href="../shoes/printer-work-shoes.svg" x="0" y="0" width="96" height="144" preserveAspectRatio="xMidYMid meet"/><text x="48" y="125" text-anchor="middle" font-family="system-ui, sans-serif" font-size="8" fill="#24313b">Printer Work Sho</text></g><g transform="translate(470 70)"><rect width="96" height="136" rx="12" fill="#fff8e9" stroke="#2d3740" stroke-opacity=".18"/><image href="../shoes/riding-boots.svg" x="0" y="0" width="96" height="144" preserveAspectRatio="xMidYMid meet"/><text x="48" y="125" text-anchor="middle" font-family="system-ui, sans-serif" font-size="8" fill="#24313b">Riding Boots</text></g><g transform="translate(582 70)"><rect width="96" height="136" rx="12" fill="#fff8e9" stroke="#2d3740" stroke-opacity=".18"/><image href="../shoes/suffrage-lace-ups.svg" x="0" y="0" width="96" height="144" preserveAspectRatio="xMidYMid meet"/><text x="48" y="125" text-anchor="middle" font-family="system-ui, sans-serif" font-size="8" fill="#24313b">Suffrage Lace-Up</text></g><g transform="translate(694 70)"><rect width="96" height="136" rx="12" fill="#fff8e9" stroke="#2d3740" stroke-opacity=".18"/><image href="../shoes/spectator-shoes.svg" x="0" y="0" width="96" height="144" preserveAspectRatio="xMidYMid meet"/><text x="48" y="125" text-anchor="middle" font-family="system-ui, sans-serif" font-size="8" fill="#24313b">Spectator Shoes</text></g><g transform="translate(806 70)"><rect width="96" height="136" rx="12" fill="#fff8e9" stroke="#2d3740" stroke-opacity=".18"/><image href="../shoes/loafers.svg" x="0" y="0" width="96" height="144" preserveAspectRatio="xMidYMid meet"/><text x="48" y="125" text-anchor="middle" font-family="system-ui, sans-serif" font-size="8" fill="#24313b">Campus Loafers</text></g><g transform="translate(918 70)"><rect width="96" height="136" rx="12" fill="#fff8e9" stroke="#2d3740" stroke-opacity=".18"/><image href="../shoes/canvas-sneakers.svg" x="0" y="0" width="96" height="144" preserveAspectRatio="xMidYMid meet"/><text x="48" y="125" text-anchor="middle" font-family="system-ui, sans-serif" font-size="8" fill="#24313b">Canvas Sneakers</text></g><g transform="translate(1030 70)"><rect width="96" height="136" rx="12" fill="#fff8e9" stroke="#2d3740" stroke-opacity=".18"/><image href="../shoes/trail-boots.svg" x="0" y="0" width="96" height="144" preserveAspectRatio="xMidYMid meet"/><text x="48" y="125" text-anchor="middle" font-family="system-ui, sans-serif" font-size="8" fill="#24313b">Trail Boots</text></g><text x="22" y="220" font-family="Georgia, serif" font-size="20" fill="#24313b">Shirts</text><g transform="translate(22 234)"><rect width="96" height="136" rx="12" fill="#fff8e9" stroke="#2d3740" stroke-opacity=".18"/><image href="../shirts/starter-linen-tunic.svg" x="0" y="0" width="96" height="144" preserveAspectRatio="xMidYMid meet"/><text x="48" y="125" text-anchor="middle" font-family="system-ui, sans-serif" font-size="8" fill="#24313b">Starter Linen Tu</text></g><g transform="translate(134 234)"><rect width="96" height="136" rx="12" fill="#fff8e9" stroke="#2d3740" stroke-opacity=".18"/><image href="../shirts/colonial-waistcoat.svg" x="0" y="0" width="96" height="144" preserveAspectRatio="xMidYMid meet"/><text x="48" y="125" text-anchor="middle" font-family="system-ui, sans-serif" font-size="8" fill="#24313b">Colonial Waistco</text></g><g transform="translate(246 234)"><rect width="96" height="136" rx="12" fill="#fff8e9" stroke="#2d3740" stroke-opacity=".18"/><image href="../shirts/frontier-flannel.svg" x="0" y="0" width="96" height="144" preserveAspectRatio="xMidYMid meet"/><text x="48" y="125" text-anchor="middle" font-family="system-ui, sans-serif" font-size="8" fill="#24313b">Frontier Flannel</text></g><g transform="translate(358 234)"><rect width="96" height="136" rx="12" fill="#fff8e9" stroke="#2d3740" stroke-opacity=".18"/><image href="../shirts/printer-apron.svg" x="0" y="0" width="96" height="144" preserveAspectRatio="xMidYMid meet"/><text x="48" y="125" text-anchor="middle" font-family="system-ui, sans-serif" font-size="8" fill="#24313b">Printer Apron</text></g><g transform="translate(470 234)"><rect width="96" height="136" rx="12" fill="#fff8e9" stroke="#2d3740" stroke-opacity=".18"/><image href="../shirts/work-shirt.svg" x="0" y="0" width="96" height="144" preserveAspectRatio="xMidYMid meet"/><text x="48" y="125" text-anchor="middle" font-family="system-ui, sans-serif" font-size="8" fill="#24313b">Work Shirt</text></g><g transform="translate(582 234)"><rect width="96" height="136" rx="12" fill="#fff8e9" stroke="#2d3740" stroke-opacity=".18"/><image href="../shirts/riding-jacket.svg" x="0" y="0" width="96" height="144" preserveAspectRatio="xMidYMid meet"/><text x="48" y="125" text-anchor="middle" font-family="system-ui, sans-serif" font-size="8" fill="#24313b">Riding Jacket</text></g><g transform="translate(694 234)"><rect width="96" height="136" rx="12" fill="#fff8e9" stroke="#2d3740" stroke-opacity=".18"/><image href="../shirts/suffrage-blouse.svg" x="0" y="0" width="96" height="144" preserveAspectRatio="xMidYMid meet"/><text x="48" y="125" text-anchor="middle" font-family="system-ui, sans-serif" font-size="8" fill="#24313b">Suffrage Blouse</text></g><g transform="translate(806 234)"><rect width="96" height="136" rx="12" fill="#fff8e9" stroke="#2d3740" stroke-opacity=".18"/><image href="../shirts/mechanic-jacket.svg" x="0" y="0" width="96" height="144" preserveAspectRatio="xMidYMid meet"/><text x="48" y="125" text-anchor="middle" font-family="system-ui, sans-serif" font-size="8" fill="#24313b">Mechanic Jacket</text></g><g transform="translate(918 234)"><rect width="96" height="136" rx="12" fill="#fff8e9" stroke="#2d3740" stroke-opacity=".18"/><image href="../shirts/varsity-sweater.svg" x="0" y="0" width="96" height="144" preserveAspectRatio="xMidYMid meet"/><text x="48" y="125" text-anchor="middle" font-family="system-ui, sans-serif" font-size="8" fill="#24313b">Varsity Sweater</text></g><g transform="translate(1030 234)"><rect width="96" height="136" rx="12" fill="#fff8e9" stroke="#2d3740" stroke-opacity=".18"/><image href="../shirts/denim-jacket.svg" x="0" y="0" width="96" height="144" preserveAspectRatio="xMidYMid meet"/><text x="48" y="125" text-anchor="middle" font-family="system-ui, sans-serif" font-size="8" fill="#24313b">Denim Jacket</text></g><text x="22" y="384" font-family="Georgia, serif" font-size="20" fill="#24313b">Hats</text><g transform="translate(22 398)"><rect width="96" height="136" rx="12" fill="#fff8e9" stroke="#2d3740" stroke-opacity=".18"/><image href="../hats/tricorn-hat.svg" x="0" y="0" width="96" height="144" preserveAspectRatio="xMidYMid meet"/><text x="48" y="125" text-anchor="middle" font-family="system-ui, sans-serif" font-size="8" fill="#24313b">Tricorn Hat</text></g><g transform="translate(134 398)"><rect width="96" height="136" rx="12" fill="#fff8e9" stroke="#2d3740" stroke-opacity=".18"/><image href="../hats/field-hat.svg" x="0" y="0" width="96" height="144" preserveAspectRatio="xMidYMid meet"/><text x="48" y="125" text-anchor="middle" font-family="system-ui, sans-serif" font-size="8" fill="#24313b">Field Hat</text></g><g transform="translate(246 398)"><rect width="96" height="136" rx="12" fill="#fff8e9" stroke="#2d3740" stroke-opacity=".18"/><image href="../hats/coonskin-cap.svg" x="0" y="0" width="96" height="144" preserveAspectRatio="xMidYMid meet"/><text x="48" y="125" text-anchor="middle" font-family="system-ui, sans-serif" font-size="8" fill="#24313b">Frontier Cap</text></g><g transform="translate(358 398)"><rect width="96" height="136" rx="12" fill="#fff8e9" stroke="#2d3740" stroke-opacity=".18"/><image href="../hats/top-hat.svg" x="0" y="0" width="96" height="144" preserveAspectRatio="xMidYMid meet"/><text x="48" y="125" text-anchor="middle" font-family="system-ui, sans-serif" font-size="8" fill="#24313b">Top Hat</text></g><g transform="translate(470 398)"><rect width="96" height="136" rx="12" fill="#fff8e9" stroke="#2d3740" stroke-opacity=".18"/><image href="../hats/bowler-hat.svg" x="0" y="0" width="96" height="144" preserveAspectRatio="xMidYMid meet"/><text x="48" y="125" text-anchor="middle" font-family="system-ui, sans-serif" font-size="8" fill="#24313b">Bowler Hat</text></g><g transform="translate(582 398)"><rect width="96" height="136" rx="12" fill="#fff8e9" stroke="#2d3740" stroke-opacity=".18"/><image href="../hats/straw-boater.svg" x="0" y="0" width="96" height="144" preserveAspectRatio="xMidYMid meet"/><text x="48" y="125" text-anchor="middle" font-family="system-ui, sans-serif" font-size="8" fill="#24313b">Straw Boater</text></g><g transform="translate(694 398)"><rect width="96" height="136" rx="12" fill="#fff8e9" stroke="#2d3740" stroke-opacity=".18"/><image href="../hats/newsboy-cap.svg" x="0" y="0" width="96" height="144" preserveAspectRatio="xMidYMid meet"/><text x="48" y="125" text-anchor="middle" font-family="system-ui, sans-serif" font-size="8" fill="#24313b">Newsboy Cap</text></g><g transform="translate(806 398)"><rect width="96" height="136" rx="12" fill="#fff8e9" stroke="#2d3740" stroke-opacity=".18"/><image href="../hats/fedora.svg" x="0" y="0" width="96" height="144" preserveAspectRatio="xMidYMid meet"/><text x="48" y="125" text-anchor="middle" font-family="system-ui, sans-serif" font-size="8" fill="#24313b">Fedora</text></g><g transform="translate(918 398)"><rect width="96" height="136" rx="12" fill="#fff8e9" stroke="#2d3740" stroke-opacity=".18"/><image href="../hats/victory-bandana.svg" x="0" y="0" width="96" height="144" preserveAspectRatio="xMidYMid meet"/><text x="48" y="125" text-anchor="middle" font-family="system-ui, sans-serif" font-size="8" fill="#24313b">Victory Bandana</text></g><g transform="translate(1030 398)"><rect width="96" height="136" rx="12" fill="#fff8e9" stroke="#2d3740" stroke-opacity=".18"/><image href="../hats/baseball-cap.svg" x="0" y="0" width="96" height="144" preserveAspectRatio="xMidYMid meet"/><text x="48" y="125" text-anchor="middle" font-family="system-ui, sans-serif" font-size="8" fill="#24313b">Baseball Cap</text></g><text x="22" y="548" font-family="Georgia, serif" font-size="20" fill="#24313b">Belts</text><g transform="translate(22 562)"><rect width="96" height="136" rx="12" fill="#fff8e9" stroke="#2d3740" stroke-opacity=".18"/><image href="../belts/starter-rope-belt.svg" x="0" y="0" width="96" height="144" preserveAspectRatio="xMidYMid meet"/><text x="48" y="125" text-anchor="middle" font-family="system-ui, sans-serif" font-size="8" fill="#24313b">Starter Rope Bel</text></g><g transform="translate(134 562)"><rect width="96" height="136" rx="12" fill="#fff8e9" stroke="#2d3740" stroke-opacity=".18"/><image href="../belts/leather-buckle-belt.svg" x="0" y="0" width="96" height="144" preserveAspectRatio="xMidYMid meet"/><text x="48" y="125" text-anchor="middle" font-family="system-ui, sans-serif" font-size="8" fill="#24313b">Leather Buckle B</text></g><g transform="translate(246 562)"><rect width="96" height="136" rx="12" fill="#fff8e9" stroke="#2d3740" stroke-opacity=".18"/><image href="../belts/brass-buckle-belt.svg" x="0" y="0" width="96" height="144" preserveAspectRatio="xMidYMid meet"/><text x="48" y="125" text-anchor="middle" font-family="system-ui, sans-serif" font-size="8" fill="#24313b">Brass Buckle Bel</text></g><g transform="translate(358 562)"><rect width="96" height="136" rx="12" fill="#fff8e9" stroke="#2d3740" stroke-opacity=".18"/><image href="../belts/printer-sash.svg" x="0" y="0" width="96" height="144" preserveAspectRatio="xMidYMid meet"/><text x="48" y="125" text-anchor="middle" font-family="system-ui, sans-serif" font-size="8" fill="#24313b">Printer Sash</text></g><g transform="translate(470 562)"><rect width="96" height="136" rx="12" fill="#fff8e9" stroke="#2d3740" stroke-opacity=".18"/><image href="../belts/work-tool-belt.svg" x="0" y="0" width="96" height="144" preserveAspectRatio="xMidYMid meet"/><text x="48" y="125" text-anchor="middle" font-family="system-ui, sans-serif" font-size="8" fill="#24313b">Work Tool Belt</text></g><g transform="translate(582 562)"><rect width="96" height="136" rx="12" fill="#fff8e9" stroke="#2d3740" stroke-opacity=".18"/><image href="../belts/traveler-sash.svg" x="0" y="0" width="96" height="144" preserveAspectRatio="xMidYMid meet"/><text x="48" y="125" text-anchor="middle" font-family="system-ui, sans-serif" font-size="8" fill="#24313b">Traveler Sash</text></g><g transform="translate(694 562)"><rect width="96" height="136" rx="12" fill="#fff8e9" stroke="#2d3740" stroke-opacity=".18"/><image href="../belts/campus-belt.svg" x="0" y="0" width="96" height="144" preserveAspectRatio="xMidYMid meet"/><text x="48" y="125" text-anchor="middle" font-family="system-ui, sans-serif" font-size="8" fill="#24313b">Campus Belt</text></g><g transform="translate(806 562)"><rect width="96" height="136" rx="12" fill="#fff8e9" stroke="#2d3740" stroke-opacity=".18"/><image href="../belts/heritage-suspenders.svg" x="0" y="0" width="96" height="144" preserveAspectRatio="xMidYMid meet"/><text x="48" y="125" text-anchor="middle" font-family="system-ui, sans-serif" font-size="8" fill="#24313b">Heritage Suspend</text></g><g transform="translate(918 562)"><rect width="96" height="136" rx="12" fill="#fff8e9" stroke="#2d3740" stroke-opacity=".18"/><image href="../belts/field-belt.svg" x="0" y="0" width="96" height="144" preserveAspectRatio="xMidYMid meet"/><text x="48" y="125" text-anchor="middle" font-family="system-ui, sans-serif" font-size="8" fill="#24313b">Field Belt</text></g><g transform="translate(1030 562)"><rect width="96" height="136" rx="12" fill="#fff8e9" stroke="#2d3740" stroke-opacity=".18"/><image href="../belts/archive-sash.svg" x="0" y="0" width="96" height="144" preserveAspectRatio="xMidYMid meet"/><text x="48" y="125" text-anchor="middle" font-family="system-ui, sans-serif" font-size="8" fill="#24313b">Archive Sash</text></g><text x="22" y="712" font-family="Georgia, serif" font-size="20" fill="#24313b">Pants</text><g transform="translate(22 726)"><rect width="96" height="136" rx="12" fill="#fff8e9" stroke="#2d3740" stroke-opacity=".18"/><image href="../pants/starter-wool-trousers.svg" x="0" y="0" width="96" height="144" preserveAspectRatio="xMidYMid meet"/><text x="48" y="125" text-anchor="middle" font-family="system-ui, sans-serif" font-size="8" fill="#24313b">Starter Wool Tro</text></g><g transform="translate(134 726)"><rect width="96" height="136" rx="12" fill="#fff8e9" stroke="#2d3740" stroke-opacity=".18"/><image href="../pants/colonial-breeches.svg" x="0" y="0" width="96" height="144" preserveAspectRatio="xMidYMid meet"/><text x="48" y="125" text-anchor="middle" font-family="system-ui, sans-serif" font-size="8" fill="#24313b">Colonial Breeche</text></g><g transform="translate(246 726)"><rect width="96" height="136" rx="12" fill="#fff8e9" stroke="#2d3740" stroke-opacity=".18"/><image href="../pants/frontier-denim.svg" x="0" y="0" width="96" height="144" preserveAspectRatio="xMidYMid meet"/><text x="48" y="125" text-anchor="middle" font-family="system-ui, sans-serif" font-size="8" fill="#24313b">Frontier Denim</text></g><g transform="translate(358 726)"><rect width="96" height="136" rx="12" fill="#fff8e9" stroke="#2d3740" stroke-opacity=".18"/><image href="../pants/printer-trousers.svg" x="0" y="0" width="96" height="144" preserveAspectRatio="xMidYMid meet"/><text x="48" y="125" text-anchor="middle" font-family="system-ui, sans-serif" font-size="8" fill="#24313b">Printer Trousers</text></g><g transform="translate(470 726)"><rect width="96" height="136" rx="12" fill="#fff8e9" stroke="#2d3740" stroke-opacity=".18"/><image href="../pants/workwear-pants.svg" x="0" y="0" width="96" height="144" preserveAspectRatio="xMidYMid meet"/><text x="48" y="125" text-anchor="middle" font-family="system-ui, sans-serif" font-size="8" fill="#24313b">Workwear Pants</text></g><g transform="translate(582 726)"><rect width="96" height="136" rx="12" fill="#fff8e9" stroke="#2d3740" stroke-opacity=".18"/><image href="../pants/riding-trousers.svg" x="0" y="0" width="96" height="144" preserveAspectRatio="xMidYMid meet"/><text x="48" y="125" text-anchor="middle" font-family="system-ui, sans-serif" font-size="8" fill="#24313b">Riding Trousers</text></g><g transform="translate(694 726)"><rect width="96" height="136" rx="12" fill="#fff8e9" stroke="#2d3740" stroke-opacity=".18"/><image href="../pants/tailored-slacks.svg" x="0" y="0" width="96" height="144" preserveAspectRatio="xMidYMid meet"/><text x="48" y="125" text-anchor="middle" font-family="system-ui, sans-serif" font-size="8" fill="#24313b">Tailored Slacks</text></g><g transform="translate(806 726)"><rect width="96" height="136" rx="12" fill="#fff8e9" stroke="#2d3740" stroke-opacity=".18"/><image href="../pants/factory-denim.svg" x="0" y="0" width="96" height="144" preserveAspectRatio="xMidYMid meet"/><text x="48" y="125" text-anchor="middle" font-family="system-ui, sans-serif" font-size="8" fill="#24313b">Factory Denim</text></g><g transform="translate(918 726)"><rect width="96" height="136" rx="12" fill="#fff8e9" stroke="#2d3740" stroke-opacity=".18"/><image href="../pants/campus-chinos.svg" x="0" y="0" width="96" height="144" preserveAspectRatio="xMidYMid meet"/><text x="48" y="125" text-anchor="middle" font-family="system-ui, sans-serif" font-size="8" fill="#24313b">Campus Chinos</text></g><g transform="translate(1030 726)"><rect width="96" height="136" rx="12" fill="#fff8e9" stroke="#2d3740" stroke-opacity=".18"/><image href="../pants/field-cargo-pants.svg" x="0" y="0" width="96" height="144" preserveAspectRatio="xMidYMid meet"/><text x="48" y="125" text-anchor="middle" font-family="system-ui, sans-serif" font-size="8" fill="#24313b">Field Cargo Pant</text></g><text x="22" y="876" font-family="Georgia, serif" font-size="20" fill="#24313b">Hands</text><g transform="translate(22 890)"><rect width="96" height="136" rx="12" fill="#fff8e9" stroke="#2d3740" stroke-opacity=".18"/><image href="../hands/starter-journal.svg" x="0" y="0" width="96" height="144" preserveAspectRatio="xMidYMid meet"/><text x="48" y="125" text-anchor="middle" font-family="system-ui, sans-serif" font-size="8" fill="#24313b">Starter Journal</text></g><g transform="translate(134 890)"><rect width="96" height="136" rx="12" fill="#fff8e9" stroke="#2d3740" stroke-opacity=".18"/><image href="../hands/atlas.svg" x="0" y="0" width="96" height="144" preserveAspectRatio="xMidYMid meet"/><text x="48" y="125" text-anchor="middle" font-family="system-ui, sans-serif" font-size="8" fill="#24313b">Atlantic Atlas</text></g><g transform="translate(246 890)"><rect width="96" height="136" rx="12" fill="#fff8e9" stroke="#2d3740" stroke-opacity=".18"/><image href="../hands/quill.svg" x="0" y="0" width="96" height="144" preserveAspectRatio="xMidYMid meet"/><text x="48" y="125" text-anchor="middle" font-family="system-ui, sans-serif" font-size="8" fill="#24313b">Historian Quill</text></g><g transform="translate(358 890)"><rect width="96" height="136" rx="12" fill="#fff8e9" stroke="#2d3740" stroke-opacity=".18"/><image href="../hands/lantern.svg" x="0" y="0" width="96" height="144" preserveAspectRatio="xMidYMid meet"/><text x="48" y="125" text-anchor="middle" font-family="system-ui, sans-serif" font-size="8" fill="#24313b">Harbor Lantern</text></g><g transform="translate(470 890)"><rect width="96" height="136" rx="12" fill="#fff8e9" stroke="#2d3740" stroke-opacity=".18"/><image href="../hands/magnifying-glass.svg" x="0" y="0" width="96" height="144" preserveAspectRatio="xMidYMid meet"/><text x="48" y="125" text-anchor="middle" font-family="system-ui, sans-serif" font-size="8" fill="#24313b">Source Sleuth Le</text></g><g transform="translate(582 890)"><rect width="96" height="136" rx="12" fill="#fff8e9" stroke="#2d3740" stroke-opacity=".18"/><image href="../hands/rolled-map.svg" x="0" y="0" width="96" height="144" preserveAspectRatio="xMidYMid meet"/><text x="48" y="125" text-anchor="middle" font-family="system-ui, sans-serif" font-size="8" fill="#24313b">Rolled Map</text></g><g transform="translate(694 890)"><rect width="96" height="136" rx="12" fill="#fff8e9" stroke="#2d3740" stroke-opacity=".18"/><image href="../hands/compass.svg" x="0" y="0" width="96" height="144" preserveAspectRatio="xMidYMid meet"/><text x="48" y="125" text-anchor="middle" font-family="system-ui, sans-serif" font-size="8" fill="#24313b">Navigator Compas</text></g><g transform="translate(806 890)"><rect width="96" height="136" rx="12" fill="#fff8e9" stroke="#2d3740" stroke-opacity=".18"/><image href="../hands/newspaper.svg" x="0" y="0" width="96" height="144" preserveAspectRatio="xMidYMid meet"/><text x="48" y="125" text-anchor="middle" font-family="system-ui, sans-serif" font-size="8" fill="#24313b">Town Newspaper</text></g><g transform="translate(918 890)"><rect width="96" height="136" rx="12" fill="#fff8e9" stroke="#2d3740" stroke-opacity=".18"/><image href="../hands/spyglass.svg" x="0" y="0" width="96" height="144" preserveAspectRatio="xMidYMid meet"/><text x="48" y="125" text-anchor="middle" font-family="system-ui, sans-serif" font-size="8" fill="#24313b">Brass Spyglass</text></g><g transform="translate(1030 890)"><rect width="96" height="136" rx="12" fill="#fff8e9" stroke="#2d3740" stroke-opacity=".18"/><image href="../hands/civic-sign.svg" x="0" y="0" width="96" height="144" preserveAspectRatio="xMidYMid meet"/><text x="48" y="125" text-anchor="middle" font-family="system-ui, sans-serif" font-size="8" fill="#24313b">Civic Sign</text></g><text x="22" y="1040" font-family="Georgia, serif" font-size="20" fill="#24313b">Transportation</text><g transform="translate(22 1054)"><rect width="96" height="136" rx="12" fill="#fff8e9" stroke="#2d3740" stroke-opacity=".18"/><image href="../transportation/horse.svg" x="0" y="0" width="96" height="144" preserveAspectRatio="xMidYMid meet"/><text x="48" y="125" text-anchor="middle" font-family="system-ui, sans-serif" font-size="8" fill="#24313b">Chestnut Horse</text></g><g transform="translate(134 1054)"><rect width="96" height="136" rx="12" fill="#fff8e9" stroke="#2d3740" stroke-opacity=".18"/><image href="../transportation/covered-wagon.svg" x="0" y="0" width="96" height="144" preserveAspectRatio="xMidYMid meet"/><text x="48" y="125" text-anchor="middle" font-family="system-ui, sans-serif" font-size="8" fill="#24313b">Covered Wagon</text></g><g transform="translate(246 1054)"><rect width="96" height="136" rx="12" fill="#fff8e9" stroke="#2d3740" stroke-opacity=".18"/><image href="../transportation/locomotive.svg" x="0" y="0" width="96" height="144" preserveAspectRatio="xMidYMid meet"/><text x="48" y="125" text-anchor="middle" font-family="system-ui, sans-serif" font-size="8" fill="#24313b">Steam Locomotive</text></g><g transform="translate(358 1054)"><rect width="96" height="136" rx="12" fill="#fff8e9" stroke="#2d3740" stroke-opacity=".18"/><image href="../transportation/bicycle.svg" x="0" y="0" width="96" height="144" preserveAspectRatio="xMidYMid meet"/><text x="48" y="125" text-anchor="middle" font-family="system-ui, sans-serif" font-size="8" fill="#24313b">Town Bicycle</text></g><g transform="translate(470 1054)"><rect width="96" height="136" rx="12" fill="#fff8e9" stroke="#2d3740" stroke-opacity=".18"/><image href="../transportation/model-t.svg" x="0" y="0" width="96" height="144" preserveAspectRatio="xMidYMid meet"/><text x="48" y="125" text-anchor="middle" font-family="system-ui, sans-serif" font-size="8" fill="#24313b">Model T</text></g><g transform="translate(582 1054)"><rect width="96" height="136" rx="12" fill="#fff8e9" stroke="#2d3740" stroke-opacity=".18"/><image href="../transportation/streetcar.svg" x="0" y="0" width="96" height="144" preserveAspectRatio="xMidYMid meet"/><text x="48" y="125" text-anchor="middle" font-family="system-ui, sans-serif" font-size="8" fill="#24313b">City Streetcar</text></g><g transform="translate(694 1054)"><rect width="96" height="136" rx="12" fill="#fff8e9" stroke="#2d3740" stroke-opacity=".18"/><image href="../transportation/tractor.svg" x="0" y="0" width="96" height="144" preserveAspectRatio="xMidYMid meet"/><text x="48" y="125" text-anchor="middle" font-family="system-ui, sans-serif" font-size="8" fill="#24313b">Farm Tractor</text></g><g transform="translate(806 1054)"><rect width="96" height="136" rx="12" fill="#fff8e9" stroke="#2d3740" stroke-opacity=".18"/><image href="../transportation/motorcycle.svg" x="0" y="0" width="96" height="144" preserveAspectRatio="xMidYMid meet"/><text x="48" y="125" text-anchor="middle" font-family="system-ui, sans-serif" font-size="8" fill="#24313b">Road Motorcycle</text></g><g transform="translate(918 1054)"><rect width="96" height="136" rx="12" fill="#fff8e9" stroke="#2d3740" stroke-opacity=".18"/><image href="../transportation/roadster.svg" x="0" y="0" width="96" height="144" preserveAspectRatio="xMidYMid meet"/><text x="48" y="125" text-anchor="middle" font-family="system-ui, sans-serif" font-size="8" fill="#24313b">Coastal Roadster</text></g><g transform="translate(1030 1054)"><rect width="96" height="136" rx="12" fill="#fff8e9" stroke="#2d3740" stroke-opacity=".18"/><image href="../transportation/modern-train.svg" x="0" y="0" width="96" height="144" preserveAspectRatio="xMidYMid meet"/><text x="48" y="125" text-anchor="middle" font-family="system-ui, sans-serif" font-size="8" fill="#24313b">Modern Railcar</text></g>
</svg>