<svg xmlns="http://www.w3.org/2000/svg" viewBox="0 0 512 768" width="512" height="768" role="img" aria-labelledby="title desc" preserveAspectRatio="xMidYMid meet">
  <title id="title">Shirt: Master Historian Coat</title>
  <desc id="desc">Layered APUSH character cosmetic. Transparent background; align with the shared 512 by 768 canvas.</desc>
  <defs>
    <linearGradient id="leatherGrad" x1="0" x2="1" y1="0" y2="1"><stop stop-color="#d09a5c"/><stop offset=".55" stop-color="#9a6038"/><stop offset="1" stop-color="#643923"/></linearGradient>
    <linearGradient id="clothGrad" x1="0" x2="0" y1="0" y2="1"><stop stop-color="#fff7e7"/><stop offset=".5" stop-color="#e5d4b8"/><stop offset="1" stop-color="#cdb68e"/></linearGradient>
    <linearGradient id="navyGrad" x1="0" x2="1" y1="0" y2="1"><stop stop-color="#537895"/><stop offset="1" stop-color="#25465c"/></linearGradient>
    <linearGradient id="denimGrad" x1="0" x2="1" y1="0" y2="1"><stop stop-color="#5e83a8"/><stop offset=".55" stop-color="#41648b"/><stop offset="1" stop-color="#29455f"/></linearGradient>
    <linearGradient id="metalGrad" x1="0" x2="1"><stop stop-color="#fff2bb"/><stop offset=".4" stop-color="#d4ac4e"/><stop offset="1" stop-color="#885d21"/></linearGradient>
    <filter id="softShadow" x="-25%" y="-25%" width="150%" height="150%"><feDropShadow dx="0" dy="6" stdDeviation="5" flood-color="#1e252a" flood-opacity=".22"/></filter>
    <filter id="tinyShadow" x="-25%" y="-25%" width="150%" height="150%"><feDropShadow dx="0" dy="2" stdDeviation="1.5" flood-color="#1e252a" flood-opacity=".3"/></filter>
  </defs>
  <g id="shirt-master-historian-coat" stroke="#2d3740" stroke-width="7" stroke-linejoin="round" stroke-linecap="round" filter="url(#tinyShadow)"><path d="M200 246 Q256 223 312 246 L333 340 L313 424 Q256 445 199 424 L178 340 Z" fill="#66567d"/>
      <path d="M256 264 L256 427 M210 256 L238 306 L256 270 L275 306 L302 256" fill="none" stroke="#be8a35" stroke-width="7"/>
      <path d="M205 354 L235 367 M307 354 L277 367" stroke="#be8a35" stroke-width="7"/>
      <circle cx="267" cy="315" r="6" fill="url(#metalGrad)"/><circle cx="267" cy="355" r="6" fill="url(#metalGrad)"/></g>
</svg>