<svg xmlns="http://www.w3.org/2000/svg" viewBox="0 0 512 768" width="512" height="768" role="img" aria-labelledby="title desc" preserveAspectRatio="xMidYMid meet">
  <title id="title">Shirt: Varsity Sweater</title>
  <desc id="desc">Layered APUSH character cosmetic. Transparent background; align with the shared 512 by 768 canvas.</desc>
  <defs>
    <linearGradient id="leatherGrad" x1="0" x2="1" y1="0" y2="1"><stop stop-color="#d09a5c"/><stop offset=".55" stop-color="#9a6038"/><stop offset="1" stop-color="#643923"/></linearGradient>
    <linearGradient id="clothGrad" x1="0" x2="0" y1="0" y2="1"><stop stop-color="#fff7e7"/><stop offset=".5" stop-color="#e5d4b8"/><stop offset="1" stop-color="#cdb68e"/></linearGradient>
    <linearGradient id="navyGrad" x1="0" x2="1" y1="0" y2="1"><stop stop-color="#537895"/><stop offset="1" stop-color="#25465c"/></linearGradient>
    <linearGradient id="denimGrad" x1="0" x2="1" y1="0" y2="1"><stop stop-color="#5e83a8"/><stop offset=".55" stop-color="#41648b"/><stop offset="1" stop-color="#29455f"/></linearGradient>
    <linearGradient id="metalGrad" x1="0" x2="1"><stop stop-color="#fff2bb"/><stop offset=".4" stop-color="#d4ac4e"/><stop offset="1" stop-color="#885d21"/></linearGradient>
    <filter id="softShadow" x="-25%" y="-25%" width="150%" height="150%"><feDropShadow dx="0" dy="6" stdDeviation="5" flood-color="#1e252a" flood-opacity=".22"/></filter>
    <filter id="tinyShadow" x="-25%" y="-25%" width="150%" height="150%"><feDropShadow dx="0" dy="2" stdDeviation="1.5" flood-color="#1e252a" flood-opacity=".3"/></filter>
  </defs>
  <g id="shirt-varsity-sweater" stroke="#2d3740" stroke-width="7" stroke-linejoin="round" stroke-linecap="round" filter="url(#tinyShadow)"><path d="M202 246 Q256 223 310 246 L335 340 L312 424 Q256 444 200 424 L177 340 Z" fill="#2a4c63"/>
      <path d="M203 282 Q256 310 309 282 M206 391 Q256 407 306 391" fill="none" stroke="#fff8e9" stroke-width="6" opacity=".8"/>
      <path d="M230 246 Q256 283 282 246" fill="#fff8e9"/></g>
</svg>