<svg xmlns="http://www.w3.org/2000/svg" viewBox="0 0 400 500" role="img" aria-label="Republic Builder character layer">
  <defs>
    <linearGradient id="gold" x1="0" x2="1"><stop stop-color="#e4b84e"/><stop offset="1" stop-color="#9f6b1a"/></linearGradient>
    <linearGradient id="cloth" x1="0" y1="0" x2="0" y2="1"><stop stop-color="#f0dfb5"/><stop offset="1" stop-color="#c5a466"/></linearGradient>
    <filter id="shadow" x="-25%" y="-25%" width="150%" height="150%"><feDropShadow dx="0" dy="7" stdDeviation="6" flood-color="#071523" flood-opacity=".45"/></filter>
  </defs>

  <path d="M159 74c-1-34 18-55 41-55 26 0 44 20 42 57l-10 20c-3-22-17-37-33-37-19 0-30 15-36 38z" fill="#2c2a32"/>
  <path d="M166 57c14-16 45-18 66-1l4 23c-22-13-47-12-72 2z" fill="#594043" opacity=".9"/>

  <ellipse cx="200" cy="476" rx="92" ry="12" fill="#071722" opacity=".3"/>
  <g filter="url(#shadow)">
    <path d="M154 432h35v34h-47c-9 0-15-7-15-15 0-11 8-19 27-19zm92 0h-35v34h47c9 0 15-7 15-15 0-11-8-19-27-19z" fill="#b87943"/>
    <path d="M154 267h48v168h-56c-4-51 5-114 8-168zm44 0h48c3 54 12 117 8 168h-56z" fill="#b87943"/>
    <path d="M144 116c12-26 34-41 56-41s44 15 56 41l26 149c-37 23-127 23-164 0z" fill="#e3b07c"/>
    <circle cx="200" cy="73" r="39" fill="#e3b07c"/>
    <path d="M166 113c6 7 17 12 34 12s28-5 34-12l-2 25c-17 12-47 12-64 0z" fill="#d08f5b"/>
  </g>
</svg>
