<svg xmlns="http://www.w3.org/2000/svg" viewBox="0 0 400 500" role="img" aria-label="Republic Builder character layer">
  <defs>
    <linearGradient id="gold" x1="0" x2="1"><stop stop-color="#e4b84e"/><stop offset="1" stop-color="#9f6b1a"/></linearGradient>
    <linearGradient id="cloth" x1="0" y1="0" x2="0" y2="1"><stop stop-color="#f0dfb5"/><stop offset="1" stop-color="#c5a466"/></linearGradient>
    <filter id="shadow" x="-25%" y="-25%" width="150%" height="150%"><feDropShadow dx="0" dy="7" stdDeviation="6" flood-color="#071523" flood-opacity=".45"/></filter>
  </defs>

  <path d="M160 74c0-34 20-55 43-55 24 0 44 20 42 56l-12 18c-3-23-17-35-34-35-19 0-29 14-35 36z" fill="#422a24"/>
  <path d="M161 78c-9 20-8 46 1 68l18-8c-10-21-8-42 1-59zM242 78c9 20 8 46-1 68l-18-8c10-21 8-42-1-59z" fill="#422a24"/>

  <ellipse cx="200" cy="476" rx="92" ry="12" fill="#071722" opacity=".3"/>
  <g filter="url(#shadow)">
    <path d="M154 432h35v34h-47c-9 0-15-7-15-15 0-11 8-19 27-19zm92 0h-35v34h47c9 0 15-7 15-15 0-11-8-19-27-19z" fill="#b87943"/>
    <path d="M154 267h48v168h-56c-4-51 5-114 8-168zm44 0h48c3 54 12 117 8 168h-56z" fill="#b87943"/>
    <path d="M144 116c12-26 34-41 56-41s44 15 56 41l26 149c-37 23-127 23-164 0z" fill="#e3b07c"/>
    <circle cx="200" cy="73" r="39" fill="#e3b07c"/>
    <path d="M166 113c6 7 17 12 34 12s28-5 34-12l-2 25c-17 12-47 12-64 0z" fill="#d08f5b"/>
  </g>
</svg>
