<svg xmlns="http://www.w3.org/2000/svg" viewBox="0 0 1600 920" role="img" aria-labelledby="title desc">
  <title id="title">Atlantic Crossroads, 1491 to 1607</title>
  <desc id="desc">A stylized historical map showing North and South America, Europe, West Africa, the Caribbean, and the Atlantic Ocean.</desc>
  <defs>
    <linearGradient id="ocean" x1="0" y1="0" x2="1" y2="1"><stop stop-color="#17495e"/><stop offset="1" stop-color="#0d2f42"/></linearGradient>
    <linearGradient id="land" x1="0" y1="0" x2="0" y2="1"><stop stop-color="#bda46b"/><stop offset="1" stop-color="#8f7547"/></linearGradient>
    <filter id="shadow" x="-20%" y="-20%" width="140%" height="140%"><feDropShadow dx="0" dy="5" stdDeviation="6" flood-opacity=".25"/></filter>
    <pattern id="waves" width="54" height="36" patternUnits="userSpaceOnUse"><path d="M0 18c8-7 18-7 27 0s19 7 27 0" fill="none" stroke="#82bdc2" stroke-opacity=".25" stroke-width="2"/></pattern>
  </defs>
  <rect width="1600" height="920" rx="28" fill="url(#ocean)"/>
  <rect width="1600" height="920" rx="28" fill="url(#waves)" opacity=".55"/>
  <g opacity=".3" fill="none" stroke="#e7cf95" stroke-width="2" stroke-dasharray="8 12">
    <path d="M236 255 C500 140 756 205 1050 260 S1340 340 1498 250"/>
    <path d="M196 615 C500 575 740 520 982 590 S1285 675 1454 560"/>
    <path d="M812 108 C748 300 810 534 730 816"/>
  </g>
  <g filter="url(#shadow)" fill="url(#land)" stroke="#5c472b" stroke-width="4" stroke-linejoin="round">
    <path d="M118 128 C219 90 343 95 440 154 L523 206 L564 282 L523 347 L509 418 L436 463 L399 549 L333 580 L271 555 L254 498 L206 451 L174 373 L123 320 L96 240 Z"/>
    <path d="M440 467 L503 495 L548 565 L571 661 L545 728 L511 812 L464 786 L442 704 L402 648 L379 564 Z"/>
    <path d="M1083 159 L1195 118 L1303 140 L1369 189 L1362 258 L1312 286 L1252 260 L1205 309 L1132 286 L1080 233 Z"/>
    <path d="M1195 333 L1304 349 L1368 414 L1380 492 L1333 558 L1357 637 L1302 728 L1232 779 L1171 735 L1148 641 L1102 581 L1091 488 L1140 419 Z"/>
    <path d="M581 418 L646 399 L703 425 L726 464 L698 500 L622 496 L578 462 Z"/>
  </g>
  <g fill="none" stroke="#d9bc78" stroke-width="3" stroke-linecap="round" opacity=".75">
    <path d="M135 226 C236 228 369 236 505 285"/>
    <path d="M153 311 C262 312 366 330 489 370"/>
    <path d="M189 398 C281 416 369 445 451 498"/>
    <path d="M1122 206 C1214 205 1298 216 1350 232"/>
    <path d="M1165 435 C1236 456 1288 502 1330 562"/>
  </g>
  <g font-family="Georgia, serif" fill="#f8e9c4" opacity=".94">
    <text x="84" y="85" font-size="25" letter-spacing="3">NORTH AMERICA</text>
    <text x="1140" y="84" font-size="25" letter-spacing="3">EUROPE</text>
    <text x="1138" y="838" font-size="24" letter-spacing="3">WEST AFRICA</text>
    <text x="654" y="220" font-size="35" letter-spacing="7" fill="#a8dde0">ATLANTIC OCEAN</text>
    <text x="602" y="544" font-size="18" letter-spacing="2">CARIBBEAN</text>
    <text x="222" y="720" font-size="23" letter-spacing="3">MEXICO &amp; MESOAMERICA</text>
  </g>
  <g fill="#f7d77f" opacity=".9">
    <circle cx="300" cy="196" r="5"/><circle cx="390" cy="270" r="4"/><circle cx="487" cy="485" r="5"/><circle cx="651" cy="449" r="5"/><circle cx="1145" cy="220" r="5"/><circle cx="1281" cy="490" r="5"/>
  </g>
  <g transform="translate(1435 760)" fill="#ebd59a" opacity=".9">
    <path d="M0 68h100M50 18v100" stroke="#ebd59a" stroke-width="3"/><text x="38" y="8" font-size="20">N</text><text x="108" y="75" font-size="15">E</text><text x="41" y="133" font-size="15">S</text><text x="-16" y="75" font-size="15">W</text>
  </g>
  <rect x="38" y="844" width="355" height="39" rx="19" fill="#092435" opacity=".68"/>
  <text x="59" y="870" font-family="Georgia, serif" fill="#f3e7c5" font-size="17" letter-spacing="1.2">REPUBLIC BUILDER · UNIT 1 FIELD MAP</text>
</svg>
