<svg xmlns="http://www.w3.org/2000/svg" viewBox="0 0 640 360"><defs><linearGradient id="rsky" x1="0" y1="0" x2="0" y2="1"><stop stop-color="#152f45"/><stop offset=".6" stop-color="#b35332"/><stop offset="1" stop-color="#ecbc70"/></linearGradient></defs><rect width="640" height="360" fill="url(#rsky)"/><path d="M0 276c117-61 248-20 353-2 102 17 202 0 287-37v123H0V276Z" fill="#2c2d2c"/><g fill="#19202a"><path d="M103 299h25l16 61h-52l11-61Zm-9-67c0-25 17-42 33-42s33 17 33 42l-12 63H105l-11-63Z"/><path d="m137 252 46-65 12 9-48 73Z"/><path d="M285 293h27l18 67h-56l11-67Zm-11-73c0-28 19-46 38-46s38 18 38 46l-13 70h-50l-13-70Z"/><path d="m324 242 56-71 12 10-58 77Z"/><path d="M470 303h23l15 57h-48l10-57Zm-9-62c0-23 15-39 31-39s31 16 31 39l-11 59h-40l-11-59Z"/><path d="m505 260 41-56 10 8-43 62Z"/></g><path d="M154 182h88v18h-88z" fill="#d03b2e"/><path d="M154 200h88v18h-88z" fill="#f4e6c0"/><path d="M154 218h88v18h-88z" fill="#315f92"/><path d="M154 182v98" stroke="#4f3723" stroke-width="7"/></svg>
