<svg xmlns="http://www.w3.org/2000/svg" viewBox="0 0 640 360"><defs><linearGradient id="sky" x1="0" y1="0" x2="1" y2="1"><stop stop-color="#ceb679"/><stop offset="1" stop-color="#665333"/></linearGradient></defs><rect width="640" height="360" fill="url(#sky)"/><path d="M95 238c74-91 131-104 194-53 49 40 84 36 154-26" fill="none" stroke="#5a4128" stroke-width="15" stroke-linecap="round"/><path d="m454 141 47 19-34 37" fill="none" stroke="#5a4128" stroke-width="15" stroke-linecap="round" stroke-linejoin="round"/><g><circle cx="141" cy="251" r="54" fill="#e9d8ac" stroke="#795b37" stroke-width="7"/><path d="M141 210v41l26 15" fill="none" stroke="#654b30" stroke-width="7" stroke-linecap="round"/><circle cx="311" cy="186" r="47" fill="#d6c087" stroke="#795b37" stroke-width="7"/><path d="M311 150v36l-22 18" fill="none" stroke="#654b30" stroke-width="7" stroke-linecap="round"/><circle cx="487" cy="140" r="44" fill="#e9d8ac" stroke="#795b37" stroke-width="7"/><path d="M487 106v36l20 12" fill="none" stroke="#654b30" stroke-width="7" stroke-linecap="round"/></g><path d="M0 315c96-27 184-24 268 8 97 37 208 25 372-8v45H0v-45Z" fill="#324331"/></svg>
