<svg xmlns="http://www.w3.org/2000/svg" viewBox="0 0 640 360"><defs><linearGradient id="bg" x1="0" y1="0" x2="1" y2="1"><stop stop-color="#1a3e5b"/><stop offset="1" stop-color="#101d2a"/></linearGradient><linearGradient id="paper" x1="0" y1="0" x2="1" y2="1"><stop stop-color="#f4e4bb"/><stop offset="1" stop-color="#b78f57"/></linearGradient></defs><rect width="640" height="360" fill="url(#bg)"/><circle cx="124" cy="136" r="76" fill="#8b5035"/><path d="M63 323c11-89 46-137 110-137s100 48 110 137H63Z" fill="#172b3d"/><ellipse cx="172" cy="135" rx="62" ry="83" fill="#d08a5c"/><path d="M111 126c7-72 119-98 126 8-22-31-43-45-75-43-19 1-38 14-51 35Z" fill="#442c25"/><path d="M137 140h22M190 140h22" stroke="#3d2821" stroke-width="5" stroke-linecap="round"/><circle cx="149" cy="153" r="4" fill="#1c1715"/><circle cx="201" cy="153" r="4" fill="#1c1715"/><path d="M161 183c10 7 22 7 31 0" fill="none" stroke="#93453c" stroke-width="4" stroke-linecap="round"/><rect x="307" y="52" width="219" height="243" rx="4" fill="url(#paper)" transform="rotate(8 416 173)"/><text x="350" y="110" font-family="serif" font-size="32" fill="#3a291d" transform="rotate(8 416 173)">COMMON</text><text x="360" y="149" font-family="serif" font-size="32" fill="#3a291d" transform="rotate(8 416 173)">SENSE</text><path d="M343 185h139M345 201h128M347 217h142M350 233h119" stroke="#78593c" stroke-width="7" opacity=".7" transform="rotate(8 416 173)"/></svg>
