<svg xmlns="http://www.w3.org/2000/svg" viewBox="0 0 640 360"><defs><linearGradient id="s" x1="0" y1="0" x2="1" y2="1"><stop stop-color="#e5c985"/><stop offset="1" stop-color="#604029"/></linearGradient></defs><rect width="640" height="360" fill="url(#s)"/><path d="M0 265c112-49 222-35 333 3 117 40 196 25 307-11v103H0V265Z" fill="#543324"/><g fill="#251f1d"><path d="M67 286h47l-12-74 16-48 18 48-12 74h50l-10 27H75l-8-27Z"/><path d="M272 286h44l-13-87 18-61 19 61-13 87h49l-8 27h-96l10-27Z"/><path d="M468 286h43l-13-77 18-51 19 51-13 77h47l-8 27h-93l10-27Z"/></g><g fill="#ba3d2d"><path d="m87 144 18-62 19 62H87Z"/><path d="m287 119 18-62 19 62h-37Z"/><path d="m481 139 18-62 19 62h-37Z"/></g><rect x="365" y="40" width="164" height="137" rx="4" fill="#edddb4" transform="rotate(8 447 108)"/><path d="M384 78h121M382 97h130M387 116h120M390 135h115" stroke="#7f5535" stroke-width="6" opacity=".75"/><circle cx="474" cy="148" r="26" fill="#9d2d23"/><path d="M466 148h16M474 140v16" stroke="#f7ddb3" stroke-width="4"/></svg>
