<svg xmlns="http://www.w3.org/2000/svg" viewBox="0 0 640 360"><defs><linearGradient id="desk" x1="0" y1="0" x2="1" y2="1"><stop stop-color="#775431"/><stop offset="1" stop-color="#382819"/></linearGradient><linearGradient id="paper" x1="0" y1="0" x2="1" y2="1"><stop stop-color="#f6e9c6"/><stop offset="1" stop-color="#b78955"/></linearGradient></defs><rect width="640" height="360" fill="url(#desk)"/><rect x="98" y="44" width="238" height="256" fill="url(#paper)" transform="rotate(-7 217 172)"/><rect x="326" y="74" width="211" height="220" fill="url(#paper)" transform="rotate(7 431 184)"/><path d="M129 99h165M124 123h172M119 147h160M115 171h166M110 195h147" stroke="#7d5b39" stroke-width="7" opacity=".65" transform="rotate(-7 217 172)"/><path d="M358 128h132M364 151h125M367 174h118M370 197h111" stroke="#7d5b39" stroke-width="7" opacity=".65" transform="rotate(7 431 184)"/><path d="m497 59 46 53-103 158-27-23L497 59Z" fill="#e7ddc3" stroke="#4d3625" stroke-width="6"/><path d="m507 65 31 37-23 21-31-37 23-21Z" fill="#2a4050"/><path d="m417 243 25 20-38 26 13-46Z" fill="#d1b77a"/></svg>
