<svg xmlns="http://www.w3.org/2000/svg" viewBox="0 0 640 360"><defs><linearGradient id="c" x1="0" y1="0" x2="1" y2="1"><stop stop-color="#eddcae"/><stop offset="1" stop-color="#98713e"/></linearGradient></defs><rect width="640" height="360" fill="#5a241c"/><path d="M0 311c140-45 267-26 381 5 90 24 178 17 259-7v51H0v-49Z" fill="#291619"/><rect x="214" y="29" width="278" height="295" rx="4" fill="url(#c)" transform="rotate(7 353 176)"/><text x="278" y="103" font-family="Georgia,serif" font-size="29" fill="#37271b" transform="rotate(7 353 176)">We the People</text><path d="M265 137h174M268 157h169M272 177h164M276 197h158M280 217h152M283 237h146" stroke="#785735" stroke-width="6" opacity=".74" transform="rotate(7 353 176)"/><path d="m466 71 102 20-27 100-102-20 27-100Z" fill="#7e211b"/><path d="m471 80 82 16-4 20-82-16 4-20Z" fill="#c74934"/><path d="m488 108 32 6-10 50-32-6 10-50Z" fill="#f3deb1"/></svg>
