<svg xmlns="http://www.w3.org/2000/svg" viewBox="0 0 640 360"><defs><linearGradient id="room" x1="0" y1="0" x2="0" y2="1"><stop stop-color="#315064"/><stop offset="1" stop-color="#121d28"/></linearGradient></defs><rect width="640" height="360" fill="url(#room)"/><path d="M0 268h640v92H0z" fill="#452d20"/><g><ellipse cx="183" cy="147" rx="54" ry="67" fill="#c28259"/><path d="M128 142c0-57 91-81 110-5-20-23-47-30-71-21-18 7-27 20-39 26Z" fill="#2c2422"/><path d="M98 320c15-93 52-138 93-138s78 45 93 138H98Z" fill="#28475a"/><path d="M194 190 221 247 180 247Z" fill="#f5ead0"/></g><g><ellipse cx="446" cy="144" rx="54" ry="67" fill="#b96d4e"/><path d="M390 142c3-65 93-81 111-4-20-26-47-34-74-24-17 6-27 19-37 28Z" fill="#3c2824"/><path d="M356 320c15-93 52-138 93-138s78 45 93 138H356Z" fill="#843126"/><path d="M449 190 476 247 435 247Z" fill="#f5ead0"/></g><path d="M261 205c39-23 78-23 117 0" fill="none" stroke="#e6c169" stroke-width="7" stroke-linecap="round"/><path d="m320 183 9 14-9 14-9-14 9-14Z" fill="#f0dc9a"/></svg>
