<svg xmlns="http://www.w3.org/2000/svg" viewBox="0 0 220 220" role="img" aria-label="Republic crest">
  <defs><linearGradient id="b" x1="0" y1="0" x2="0" y2="1"><stop stop-color="#2b6387"/><stop offset="1" stop-color="#09253d"/></linearGradient><linearGradient id="g" x1="0" y1="0" x2="1" y2="1"><stop stop-color="#fff0a7"/><stop offset="1" stop-color="#b67a1e"/></linearGradient></defs>
  <path d="M110 18 183 46v58c0 52-31 83-73 103-42-20-73-51-73-103V46l73-28Z" fill="url(#b)" stroke="url(#g)" stroke-width="7"/>
  <path d="M110 45 154 61v39c0 30-16 51-44 67-28-16-44-37-44-67V61l44-16Z" fill="#e6e0c8"/>
  <path d="M66 83h88v18H66zM75 104h18v39H75zM101 104h18v39h-18zM127 104h18v39h-18zM67 144h86v13H67z" fill="#174c73"/>
  <path d="M46 145c-12-22-14-45-4-71M174 145c12-22 14-45 4-71" fill="none" stroke="url(#g)" stroke-width="7" stroke-linecap="round"/>
  <path d="M38 163c20 23 44 34 72 34s52-11 72-34" fill="none" stroke="url(#g)" stroke-width="7" stroke-linecap="round"/>
  <path d="m88 36 22-18 22 18" fill="none" stroke="#f8dc83" stroke-width="5"/>
</svg>
