<svg xmlns="http://www.w3.org/2000/svg" viewBox="0 0 400 500" role="img" aria-label="Republic Builder character layer">
  <defs>
    <linearGradient id="gold" x1="0" x2="1"><stop stop-color="#e4b84e"/><stop offset="1" stop-color="#9f6b1a"/></linearGradient>
    <linearGradient id="cloth" x1="0" y1="0" x2="0" y2="1"><stop stop-color="#f0dfb5"/><stop offset="1" stop-color="#c5a466"/></linearGradient>
    <filter id="shadow" x="-25%" y="-25%" width="150%" height="150%"><feDropShadow dx="0" dy="7" stdDeviation="6" flood-color="#071523" flood-opacity=".45"/></filter>
  </defs>

  <g filter="url(#shadow)">
    <path d="M132 68c18-44 42-60 69-60 29 0 54 16 69 60-10 12-24 15-37 12-15-4-21-19-32-33-11 14-18 29-32 33-13 3-27 0-37-12z" fill="#273746" stroke="#dfb95f" stroke-width="4"/>
    <path d="M141 68c18 10 36 12 58-7 21 19 42 17 60 7" fill="none" stroke="#68849b" stroke-width="4"/>
  </g>
</svg>
