<?xml version="1.0" encoding="UTF-8"?>
<svg xmlns="http://www.w3.org/2000/svg" width="128" height="128" viewBox="0 0 128 128" role="img" aria-label="Tailor profession icon" data-asset-type="profession-icon">
  <title>Tailor profession icon</title>
  <defs>
    <linearGradient id="gold-gradient" x1="0" y1="0" x2="1" y2="1">
      <stop offset="0" stop-color="#FFF0A9"/>
      <stop offset="0.42" stop-color="#E9B74B"/>
      <stop offset="1" stop-color="#8A5313"/>
    </linearGradient>
    <linearGradient id="cloth-cream" x1="0" y1="0" x2="0" y2="1">
      <stop offset="0" stop-color="#FFF7DA"/>
      <stop offset="1" stop-color="#BFA56E"/>
    </linearGradient>
    <linearGradient id="cloth-blue" x1="0" y1="0" x2="0" y2="1">
      <stop offset="0" stop-color="#2F708D"/>
      <stop offset="1" stop-color="#0B2B44"/>
    </linearGradient>
    <linearGradient id="leather-gradient" x1="0" y1="0" x2="0.9" y2="1">
      <stop offset="0" stop-color="#B87935"/>
      <stop offset="0.5" stop-color="#623616"/>
      <stop offset="1" stop-color="#2A160A"/>
    </linearGradient>
    <filter id="soft-shadow" x="-30%" y="-30%" width="160%" height="160%">
      <feDropShadow dx="0" dy="8" stdDeviation="6" flood-color="#000000" flood-opacity="0.48"/>
    </filter>
    <filter id="gold-glow" x="-30%" y="-30%" width="160%" height="160%">
      <feGaussianBlur stdDeviation="2" result="blur"/>
      <feMerge><feMergeNode in="blur"/><feMergeNode in="SourceGraphic"/></feMerge>
    </filter>
    
  </defs>
  
    <circle cx="64" cy="64" r="59" fill="#071A2D" stroke="url(#gold-gradient)" stroke-width="4"/>
    <circle cx="64" cy="64" r="49" fill="#0B2B44" stroke="#765014" stroke-width="2"/>
    <path d="M22 76 Q64 96 106 76" fill="none" stroke="#C78628" stroke-width="2" opacity=".65"/>
    <g fill="none" stroke="#F2E2B2" stroke-width="4" stroke-linejoin="round" stroke-linecap="round">
      
  <path d="M37 92 Q64 57 91 28" stroke="#D2E1E2" stroke-width="5"/>
  <path d="M82 30 Q91 26 96 33 Q90 42 83 40Z" fill="#C68B37" stroke="#E9B74B"/>
  <path d="M31 81 Q43 74 51 84 Q43 95 31 92Z" fill="#A55243" stroke="#E9B74B"/>
  <circle cx="61" cy="70" r="14" fill="#B77045" stroke="#E9B74B"/>
  <circle cx="61" cy="70" r="5" fill="#071A2D" stroke="#E9B74B"/>
  <path d="M46 59 Q64 48 76 59 M46 81 Q64 92 76 81" stroke="#E9B74B" stroke-width="2"/>

    </g>
    <circle cx="64" cy="64" r="56" fill="none" stroke="#E9B74B" stroke-width="1.3" stroke-dasharray="2 8" opacity=".85"/>
    
</svg>